<?xml version="1.0" encoding="utf-8"?>
<!-- Generator: Adobe Illustrator 16.0.0, SVG Export Plug-In . SVG Version: 6.00 Build 0)  -->
<!DOCTYPE svg PUBLIC "-//W3C//DTD SVG 1.1//EN" "http://www.w3.org/Graphics/SVG/1.1/DTD/svg11.dtd">
<svg version="1.1"
	 id="svg2" xmlns:rdf="http://www.w3.org/1999/02/22-rdf-syntax-ns#" xmlns:inkscape="http://www.inkscape.org/namespaces/inkscape" xmlns:svg="http://www.w3.org/2000/svg" xmlns:sodipodi="http://sodipodi.sourceforge.net/DTD/sodipodi-0.dtd" xmlns:cc="http://web.resource.org/cc/" xmlns:dc="http://purl.org/dc/elements/1.1/" sodipodi:version="0.32" sodipodi:docbase="/home/javier" sodipodi:docname="Escudo-UNAM.svg" inkscape:version="0.45.1" inkscape:output_extension="org.inkscape.output.svg.inkscape"
	 xmlns="http://www.w3.org/2000/svg" xmlns:xlink="http://www.w3.org/1999/xlink" x="0px" y="0px" width="240px" height="72px"
	 viewBox="0 0 240 72" enable-background="new 0 0 240 72" xml:space="preserve">
<rect x="58.115" y="26.224" fill="#FFFFFF" stroke="#333333" stroke-width="1.6026" stroke-linejoin="round" stroke-miterlimit="10" width="18.59" height="23.717"/>
<g>
	<path fill="#333333" d="M73.019,32.154c0,0.354-0.287,0.641-0.641,0.641h-9.936c-0.354,0-0.641-0.287-0.641-0.641l0,0
		c0-0.354,0.287-0.641,0.641-0.641h9.936C72.731,31.513,73.019,31.8,73.019,32.154L73.019,32.154z"/>
	<path fill="#333333" d="M73.339,34.718c0,0.354-0.303,0.642-0.678,0.642H62.158c-0.374,0-0.677-0.287-0.677-0.642l0,0
		c0-0.354,0.303-0.641,0.677-0.641h10.504C73.036,34.077,73.339,34.364,73.339,34.718L73.339,34.718z"/>
	<path fill="#333333" d="M72.057,37.282c0,0.276-0.238,0.641-0.531,0.641h-8.233c-0.293,0-0.531-0.362-0.531-0.641l0,0
		c0-0.277,0.238-0.642,0.531-0.642h8.233C71.819,36.641,72.057,37.005,72.057,37.282L72.057,37.282z"/>
</g>
<circle fill="#FFFFFF" stroke="#333333" stroke-width="1.6026" stroke-miterlimit="10" cx="50.155" cy="22.431" r="11.431"/>
<g>
	
		<polygon fill="#E6E6E6" stroke="#333333" stroke-width="1.2821" stroke-linecap="round" stroke-linejoin="round" stroke-miterlimit="10" points="
		48.968,20.042 48.745,24.785 53.467,28.308 53.467,16.79 	"/>
	
		<rect x="45.775" y="20.295" fill="#E6E6E6" stroke="#333333" stroke-width="1.2821" stroke-linecap="round" stroke-linejoin="round" stroke-miterlimit="10" width="3.206" height="4.808"/>
</g>
<rect x="36.961" y="44.173" fill="#FFFFFF" stroke="#333333" stroke-width="1.6026" stroke-linejoin="round" stroke-miterlimit="10" width="25.641" height="15.705"/>
<line fill="none" stroke="#333333" stroke-width="1.6026" stroke-linecap="round" stroke-linejoin="round" stroke-miterlimit="10" x1="57.313" y1="49.941" x2="41.929" y2="49.941"/>
<circle cx="40.647" cy="46.896" r="1.002"/>
<circle cx="43.532" cy="46.896" r="1.002"/>
<circle cx="46.416" cy="46.896" r="1.002"/>
<path fill="#FFFFFF" stroke="#333333" stroke-width="1.6026" stroke-linecap="round" stroke-linejoin="round" stroke-miterlimit="10" d="
	M42.73,26.321c0-0.761-0.477-1.379-1.033-1.379H22.583c-0.556,0-1.006,0.618-1.006,1.379v16.001c0,0.762,0.45,1.209,1.006,1.209
	h2.18l0.402,3.816l2.951-3.816h13.582c0.556,0,1.033-0.447,1.033-1.209L42.73,26.321L42.73,26.321z"/>
<g>
	<path fill="#333333" d="M30.512,36.609c0.293,0.133,0.536,0.34,0.728,0.623c0.172,0.25,0.284,0.541,0.335,0.869
		c0.03,0.192,0.042,0.473,0.036,0.836h-3.064c0.017,0.422,0.163,0.717,0.44,0.888c0.168,0.106,0.37,0.157,0.606,0.157
		c0.251,0,0.455-0.062,0.611-0.191c0.086-0.068,0.161-0.166,0.227-0.289h1.124c-0.03,0.249-0.166,0.503-0.408,0.76
		c-0.377,0.409-0.905,0.614-1.583,0.614c-0.56,0-1.054-0.173-1.482-0.519c-0.428-0.344-0.642-0.905-0.642-1.686
		c0-0.729,0.193-1.287,0.58-1.677s0.888-0.583,1.505-0.583C29.889,36.413,30.219,36.479,30.512,36.609z M28.867,37.561
		c-0.156,0.16-0.253,0.379-0.293,0.651h1.895c-0.02-0.292-0.118-0.514-0.293-0.664C30,37.396,29.782,37.32,29.523,37.32
		C29.241,37.32,29.022,37.4,28.867,37.561z"/>
	<path fill="#333333" d="M35.56,36.768c0.275,0.229,0.414,0.604,0.414,1.133v2.832h-1.127v-2.559c0-0.222-0.029-0.392-0.088-0.51
		c-0.107-0.216-0.312-0.324-0.613-0.324c-0.37,0-0.625,0.158-0.763,0.475c-0.071,0.168-0.107,0.381-0.107,0.643v2.275h-1.1v-4.197
		h1.065v0.611c0.141-0.215,0.274-0.371,0.4-0.467c0.225-0.171,0.511-0.255,0.857-0.255C34.93,36.426,35.284,36.539,35.56,36.768z"/>
</g>
<g>
	<path fill="#333333" d="M30.319,27.847c0.308,0.138,0.562,0.355,0.763,0.653c0.181,0.262,0.298,0.566,0.352,0.913
		c0.031,0.202,0.043,0.495,0.038,0.875h-3.216c0.018,0.443,0.172,0.754,0.461,0.932c0.176,0.11,0.388,0.166,0.636,0.166
		c0.263,0,0.477-0.068,0.641-0.203c0.089-0.073,0.168-0.174,0.237-0.303h1.179c-0.031,0.262-0.174,0.528-0.428,0.798
		c-0.396,0.429-0.949,0.645-1.661,0.645c-0.587,0-1.106-0.181-1.555-0.543c-0.449-0.361-0.674-0.951-0.674-1.767
		c0-0.765,0.203-1.351,0.608-1.759c0.406-0.408,0.932-0.612,1.579-0.612C29.665,27.64,30.011,27.709,30.319,27.847z M28.592,28.845
		c-0.163,0.168-0.266,0.396-0.307,0.683h1.988c-0.021-0.307-0.123-0.539-0.307-0.698c-0.184-0.159-0.412-0.238-0.685-0.238
		C28.984,28.592,28.755,28.676,28.592,28.845z"/>
	<path fill="#333333" d="M32.95,30.764c0.025,0.205,0.078,0.351,0.159,0.437c0.144,0.154,0.409,0.231,0.797,0.231
		c0.228,0,0.409-0.034,0.543-0.102c0.134-0.067,0.202-0.168,0.202-0.304c0-0.13-0.054-0.229-0.162-0.295
		c-0.108-0.067-0.511-0.184-1.208-0.349c-0.502-0.125-0.855-0.279-1.061-0.465c-0.205-0.184-0.308-0.448-0.308-0.794
		c0-0.408,0.161-0.757,0.48-1.051c0.321-0.293,0.772-0.439,1.354-0.439c0.552,0,1.002,0.11,1.35,0.33
		c0.347,0.22,0.547,0.601,0.599,1.141h-1.154c-0.016-0.149-0.058-0.266-0.125-0.353c-0.127-0.157-0.344-0.235-0.65-0.235
		c-0.251,0-0.431,0.04-0.538,0.118c-0.106,0.078-0.16,0.17-0.16,0.275c0,0.132,0.057,0.228,0.17,0.287
		c0.114,0.062,0.516,0.169,1.206,0.32c0.459,0.108,0.804,0.271,1.034,0.49c0.227,0.222,0.34,0.499,0.34,0.83
		c0,0.438-0.163,0.794-0.489,1.072c-0.326,0.277-0.83,0.415-1.511,0.415c-0.695,0-1.209-0.146-1.541-0.439
		c-0.332-0.292-0.497-0.666-0.497-1.119L32.95,30.764L32.95,30.764z"/>
</g>
<line fill="none" stroke="#FFFFFF" stroke-width="1.6026" stroke-linecap="round" stroke-linejoin="round" stroke-miterlimit="10" x1="84.077" y1="17.731" x2="84.077" y2="61"/>
<g>
	<path fill="#FFFFFF" d="M91.975,36.382h-1.449l5.312-12.211h1.207l5.312,12.211h-1.449l-1.345-3.208H93.32L91.975,36.382z
		 M93.786,32.036h5.295l-2.639-6.416L93.786,32.036z"/>
	<path fill="#FFFFFF" d="M103.598,30.104c0-0.299-0.008-0.598-0.025-0.897c-0.017-0.299-0.037-0.598-0.061-0.897h1.225v1.225h0.034
		c0.275-0.471,0.658-0.828,1.147-1.069c0.487-0.241,0.975-0.362,1.457-0.362c0.219,0,0.451,0.023,0.698,0.069
		c0.247,0.046,0.486,0.129,0.716,0.25s0.446,0.291,0.647,0.509c0.2,0.219,0.37,0.5,0.509,0.845c0.229-0.517,0.595-0.925,1.095-1.224
		c0.501-0.299,1.021-0.449,1.561-0.449c1.035,0,1.8,0.273,2.294,0.819s0.741,1.325,0.741,2.337v5.122h-1.139v-4.708
		c0-0.816-0.144-1.442-0.431-1.88c-0.288-0.437-0.822-0.655-1.604-0.655c-0.425,0-0.782,0.083-1.069,0.25s-0.521,0.388-0.699,0.664
		c-0.178,0.276-0.308,0.59-0.388,0.94c-0.08,0.35-0.121,0.715-0.121,1.095v4.293h-1.138v-4.708c0-0.816-0.144-1.442-0.431-1.88
		c-0.288-0.437-0.822-0.655-1.605-0.655c-0.068,0-0.227,0.023-0.474,0.069s-0.503,0.172-0.768,0.379s-0.503,0.518-0.716,0.932
		c-0.213,0.414-0.318,0.989-0.318,1.725v4.139h-1.139L103.598,30.104L103.598,30.104z"/>
	<path fill="#FFFFFF" d="M118.292,23.343h1.139v6.312h0.034c0.184-0.276,0.402-0.512,0.655-0.707
		c0.253-0.195,0.519-0.356,0.793-0.483s0.562-0.218,0.854-0.276c0.293-0.057,0.57-0.086,0.836-0.086
		c0.633,0,1.211,0.106,1.732,0.319s0.977,0.509,1.354,0.888c0.379,0.379,0.677,0.828,0.89,1.345
		c0.211,0.517,0.317,1.081,0.317,1.689c0,0.609-0.106,1.173-0.317,1.69c-0.213,0.518-0.511,0.966-0.89,1.346
		c-0.379,0.379-0.83,0.675-1.354,0.888s-1.104,0.319-1.732,0.319c-0.266,0-0.543-0.028-0.836-0.087
		c-0.293-0.058-0.578-0.148-0.854-0.275c-0.274-0.126-0.541-0.287-0.793-0.482c-0.253-0.196-0.472-0.432-0.655-0.708h-0.034v1.345
		h-1.139V23.343z M125.656,32.346c0-0.448-0.072-0.868-0.217-1.259s-0.35-0.729-0.611-1.017c-0.264-0.287-0.584-0.514-0.957-0.681
		s-0.795-0.25-1.268-0.25s-0.902,0.084-1.293,0.25c-0.393,0.167-0.73,0.394-1.019,0.681c-0.288,0.288-0.512,0.627-0.673,1.017
		c-0.161,0.391-0.242,0.811-0.242,1.259c0,0.448,0.081,0.868,0.242,1.259c0.161,0.391,0.384,0.73,0.673,1.018
		c0.287,0.287,0.626,0.515,1.019,0.681c0.391,0.167,0.82,0.25,1.293,0.25s0.895-0.083,1.268-0.25
		c0.373-0.166,0.693-0.394,0.957-0.681c0.264-0.288,0.469-0.627,0.611-1.018C125.584,33.214,125.656,32.794,125.656,32.346z"/>
	<path fill="#FFFFFF" d="M130.486,25.206c0,0.241-0.088,0.44-0.26,0.595c-0.172,0.155-0.361,0.233-0.568,0.233
		s-0.396-0.078-0.568-0.233c-0.174-0.155-0.26-0.354-0.26-0.595c0-0.241,0.086-0.439,0.26-0.595
		c0.172-0.155,0.361-0.233,0.568-0.233s0.396,0.078,0.568,0.233C130.398,24.766,130.486,24.964,130.486,25.206z M130.227,36.382
		h-1.139V28.31h1.139V36.382z"/>
	<path fill="#FFFFFF" d="M133.762,32.656c0.035,0.403,0.133,0.782,0.293,1.138c0.162,0.356,0.375,0.664,0.639,0.923
		c0.266,0.258,0.57,0.462,0.914,0.611c0.348,0.149,0.721,0.225,1.121,0.225c0.609,0,1.139-0.141,1.578-0.423
		c0.443-0.281,0.779-0.606,1.01-0.974l0.879,0.724c-0.48,0.609-1.016,1.047-1.596,1.311c-0.58,0.265-1.205,0.396-1.871,0.396
		c-0.598,0-1.152-0.106-1.664-0.318c-0.512-0.213-0.951-0.509-1.318-0.889c-0.367-0.379-0.658-0.828-0.871-1.345
		c-0.213-0.518-0.316-1.081-0.316-1.69c0-0.609,0.104-1.173,0.311-1.69c0.207-0.517,0.494-0.966,0.863-1.345
		c0.367-0.379,0.799-0.675,1.293-0.888s1.029-0.319,1.604-0.319c0.609,0,1.154,0.109,1.639,0.328
		c0.482,0.219,0.887,0.509,1.215,0.871c0.328,0.362,0.578,0.788,0.75,1.276c0.175,0.488,0.262,1.008,0.262,1.561v0.518
		L133.762,32.656L133.762,32.656z M139.246,31.726c0-0.771-0.23-1.394-0.689-1.872c-0.461-0.477-1.104-0.716-1.932-0.716
		c-0.367,0-0.725,0.072-1.068,0.216c-0.346,0.144-0.646,0.336-0.906,0.578c-0.258,0.241-0.465,0.518-0.621,0.828
		c-0.152,0.31-0.23,0.632-0.23,0.966H139.246L139.246,31.726z"/>
	<path fill="#FFFFFF" d="M143.645,28.31c0.023,0.219,0.037,0.434,0.043,0.647s0.008,0.429,0.008,0.647h0.035
		c0.127-0.218,0.287-0.42,0.482-0.604s0.414-0.342,0.656-0.474c0.24-0.132,0.496-0.235,0.768-0.311
		c0.271-0.075,0.537-0.112,0.803-0.112c1.035,0,1.799,0.273,2.293,0.819s0.74,1.325,0.74,2.337v5.122h-1.137v-4.467
		c0-0.896-0.156-1.583-0.467-2.061s-0.885-0.716-1.725-0.716c-0.061,0-0.221,0.023-0.482,0.069
		c-0.264,0.046-0.543,0.172-0.836,0.379s-0.555,0.518-0.785,0.932s-0.346,0.989-0.346,1.725v4.139h-1.137v-6.295
		c0-0.218-0.012-0.494-0.027-0.828c-0.018-0.333-0.037-0.649-0.059-0.948H143.645L143.645,28.31z"/>
	<path fill="#FFFFFF" d="M156.32,29.345h-2.328v4.76c0,0.299,0.027,0.543,0.086,0.733c0.059,0.189,0.139,0.336,0.242,0.439
		c0.103,0.103,0.227,0.175,0.371,0.216c0.143,0.04,0.301,0.061,0.473,0.061c0.195,0,0.396-0.029,0.604-0.087
		c0.209-0.058,0.396-0.132,0.57-0.224l0.051,1.052c-0.426,0.195-0.938,0.293-1.535,0.293c-0.219,0-0.443-0.027-0.682-0.086
		c-0.234-0.058-0.451-0.167-0.646-0.328c-0.193-0.16-0.354-0.379-0.48-0.655c-0.127-0.275-0.188-0.638-0.188-1.086v-5.088h-1.709
		V28.31h1.709v-2.277h1.137v2.277h2.33v1.035H156.32z"/>
	<path fill="#FFFFFF" d="M158.666,32.656c0.035,0.403,0.133,0.782,0.293,1.138s0.373,0.664,0.639,0.923
		c0.264,0.258,0.568,0.462,0.914,0.611c0.344,0.149,0.719,0.225,1.121,0.225c0.609,0,1.135-0.141,1.578-0.423
		c0.441-0.281,0.779-0.606,1.008-0.974l0.879,0.724c-0.48,0.609-1.014,1.047-1.596,1.311c-0.58,0.265-1.203,0.396-1.871,0.396
		c-0.596,0-1.152-0.106-1.662-0.318c-0.514-0.213-0.953-0.509-1.32-0.889c-0.365-0.379-0.656-0.828-0.871-1.345
		c-0.213-0.518-0.316-1.081-0.316-1.69c0-0.609,0.104-1.173,0.312-1.69c0.207-0.517,0.494-0.966,0.859-1.345
		c0.367-0.379,0.801-0.675,1.293-0.888c0.494-0.213,1.029-0.319,1.604-0.319c0.607,0,1.154,0.109,1.639,0.328
		c0.48,0.219,0.891,0.509,1.217,0.871c0.326,0.362,0.578,0.788,0.75,1.276c0.174,0.488,0.262,1.008,0.262,1.561v0.518
		L158.666,32.656L158.666,32.656z M164.15,31.726c0-0.771-0.23-1.394-0.689-1.872c-0.461-0.477-1.104-0.716-1.932-0.716
		c-0.369,0-0.725,0.072-1.07,0.216c-0.344,0.144-0.646,0.336-0.904,0.578c-0.26,0.241-0.465,0.518-0.621,0.828
		c-0.154,0.31-0.23,0.632-0.23,0.966H164.15L164.15,31.726z"/>
	<path fill="#FFFFFF" d="M176.223,34.519h0.033l4.002-10.348h1.346l-4.762,12.211h-1.24l-4.641-12.211h1.381L176.223,34.519z"/>
	<path fill="#FFFFFF" d="M184.553,25.206c0,0.241-0.088,0.44-0.26,0.595c-0.172,0.155-0.361,0.233-0.568,0.233
		s-0.396-0.078-0.566-0.233c-0.176-0.155-0.262-0.354-0.262-0.595c0-0.241,0.086-0.439,0.262-0.595
		c0.172-0.155,0.359-0.233,0.566-0.233s0.396,0.078,0.568,0.233C184.465,24.766,184.553,24.964,184.553,25.206z M184.293,36.382
		h-1.137V28.31h1.137V36.382z"/>
	<path fill="#FFFFFF" d="M187.156,30.828c0-0.356-0.008-0.718-0.025-1.086c-0.017-0.368-0.033-0.845-0.043-1.432h1.121v1.501h0.033
		c0.08-0.218,0.195-0.428,0.346-0.629c0.148-0.201,0.33-0.382,0.543-0.543c0.211-0.161,0.459-0.29,0.74-0.388
		c0.283-0.098,0.602-0.147,0.957-0.147c0.322,0,0.604,0.034,0.846,0.104l-0.225,1.121c-0.148-0.057-0.367-0.086-0.654-0.086
		c-0.438,0-0.811,0.083-1.121,0.25s-0.57,0.38-0.777,0.639c-0.207,0.258-0.357,0.538-0.457,0.836
		c-0.098,0.298-0.146,0.586-0.146,0.862v4.553h-1.137L187.156,30.828L187.156,30.828z"/>
	<path fill="#FFFFFF" d="M196.936,29.345h-2.33v4.76c0,0.299,0.029,0.543,0.088,0.733c0.059,0.189,0.139,0.336,0.24,0.439
		c0.104,0.103,0.229,0.175,0.371,0.216c0.146,0.04,0.301,0.061,0.475,0.061c0.195,0,0.396-0.029,0.604-0.087
		c0.208-0.058,0.396-0.132,0.568-0.224l0.053,1.052c-0.426,0.195-0.938,0.293-1.534,0.293c-0.22,0-0.445-0.027-0.683-0.086
		c-0.237-0.058-0.451-0.167-0.646-0.328c-0.195-0.16-0.357-0.379-0.484-0.655c-0.125-0.275-0.189-0.638-0.189-1.086v-5.088h-1.707
		V28.31h1.707v-2.277h1.139v2.277h2.328V29.345L196.936,29.345z"/>
	<path fill="#FFFFFF" d="M204.316,36.382c-0.023-0.219-0.037-0.435-0.045-0.646c-0.006-0.213-0.008-0.429-0.008-0.647h-0.033
		c-0.127,0.219-0.287,0.42-0.484,0.604c-0.195,0.184-0.414,0.343-0.654,0.475c-0.242,0.132-0.498,0.235-0.768,0.311
		c-0.271,0.074-0.539,0.112-0.803,0.112c-1.035,0-1.799-0.273-2.293-0.819c-0.496-0.547-0.742-1.325-0.742-2.337V28.31h1.139v4.467
		c0,0.448,0.035,0.845,0.104,1.19c0.069,0.345,0.188,0.635,0.354,0.871c0.168,0.236,0.392,0.414,0.674,0.535
		c0.281,0.12,0.636,0.181,1.062,0.181c0.058,0,0.22-0.022,0.481-0.068c0.263-0.046,0.543-0.173,0.837-0.38
		c0.293-0.207,0.555-0.518,0.784-0.931c0.229-0.414,0.347-0.989,0.347-1.725v-4.14h1.137v6.295c0,0.219,0.011,0.494,0.027,0.827
		c0.017,0.334,0.036,0.65,0.06,0.948L204.316,36.382L204.316,36.382z"/>
	<path fill="#FFFFFF" d="M213.25,31.432v-0.207c0-1.391-0.689-2.087-2.07-2.087c-0.941,0-1.766,0.316-2.465,0.948l-0.689-0.811
		c0.76-0.782,1.896-1.173,3.414-1.173c0.393,0,0.77,0.058,1.129,0.172c0.363,0.115,0.678,0.291,0.941,0.526
		c0.264,0.236,0.477,0.532,0.637,0.888s0.242,0.782,0.242,1.276v3.604c0,0.311,0.014,0.636,0.043,0.975s0.062,0.618,0.096,0.836
		h-1.104c-0.035-0.194-0.061-0.407-0.078-0.638c-0.018-0.229-0.025-0.454-0.025-0.673h-0.033c-0.334,0.541-0.729,0.929-1.184,1.164
		c-0.453,0.235-1.008,0.354-1.664,0.354c-0.354,0-0.701-0.049-1.035-0.146s-0.629-0.247-0.889-0.448
		c-0.258-0.201-0.465-0.448-0.619-0.741c-0.155-0.293-0.232-0.636-0.232-1.026c0-0.655,0.17-1.17,0.51-1.543
		c0.338-0.374,0.766-0.653,1.273-0.836c0.514-0.184,1.061-0.299,1.641-0.345s1.109-0.069,1.598-0.069H213.25L213.25,31.432z
		 M212.664,32.363c-0.289,0-0.648,0.014-1.078,0.043c-0.432,0.029-0.846,0.098-1.242,0.207c-0.396,0.109-0.736,0.279-1.018,0.509
		c-0.282,0.23-0.422,0.546-0.422,0.948c0,0.265,0.055,0.492,0.162,0.682c0.107,0.189,0.258,0.345,0.439,0.466
		c0.186,0.12,0.389,0.207,0.611,0.258c0.225,0.053,0.449,0.078,0.682,0.078c0.414,0,0.771-0.069,1.078-0.207
		c0.307-0.139,0.562-0.325,0.77-0.561c0.207-0.236,0.357-0.512,0.457-0.828c0.098-0.316,0.146-0.653,0.146-1.009v-0.587
		L212.664,32.363L212.664,32.363L212.664,32.363z"/>
	<path fill="#FFFFFF" d="M218.424,36.382h-1.139V23.344h1.139V36.382z"/>
	<path fill="#FFFFFF" d="M99.822,57.077h-1.138v-1.345h-0.035c-0.184,0.273-0.402,0.512-0.655,0.707
		c-0.253,0.193-0.517,0.354-0.793,0.481c-0.276,0.127-0.561,0.22-0.854,0.274c-0.293,0.057-0.572,0.088-0.837,0.088
		c-0.632,0-1.21-0.106-1.733-0.319c-0.523-0.212-0.975-0.509-1.354-0.888c-0.379-0.381-0.676-0.828-0.888-1.346
		c-0.213-0.519-0.319-1.082-0.319-1.689s0.106-1.173,0.319-1.688c0.212-0.52,0.509-0.969,0.888-1.347
		c0.379-0.38,0.83-0.676,1.354-0.889c0.524-0.214,1.102-0.318,1.733-0.318c0.265,0,0.544,0.029,0.837,0.087
		c0.293,0.059,0.577,0.149,0.854,0.275c0.275,0.127,0.54,0.287,0.793,0.482c0.253,0.194,0.472,0.433,0.655,0.707h0.035V44.04h1.138
		V57.077z M92.458,53.042c0,0.448,0.072,0.868,0.216,1.259c0.143,0.393,0.348,0.73,0.612,1.02c0.264,0.287,0.583,0.515,0.956,0.682
		c0.374,0.167,0.797,0.25,1.268,0.25c0.461,0,0.889-0.084,1.285-0.25c0.396-0.167,0.739-0.395,1.026-0.682
		c0.287-0.287,0.512-0.627,0.674-1.02c0.16-0.391,0.241-0.811,0.241-1.259s-0.081-0.868-0.241-1.259
		c-0.162-0.391-0.386-0.73-0.674-1.018c-0.287-0.289-0.629-0.517-1.026-0.684c-0.396-0.167-0.824-0.25-1.285-0.25
		c-0.471,0-0.894,0.084-1.268,0.25c-0.373,0.167-0.692,0.395-0.956,0.684c-0.265,0.285-0.469,0.627-0.612,1.018
		C92.529,52.174,92.458,52.594,92.458,53.042z"/>
	<path fill="#FFFFFF" d="M103.099,53.354c0.034,0.401,0.132,0.781,0.293,1.14c0.161,0.354,0.373,0.664,0.638,0.922
		c0.265,0.26,0.569,0.463,0.915,0.61c0.345,0.15,0.718,0.227,1.121,0.227c0.608,0,1.135-0.143,1.578-0.423
		c0.442-0.281,0.778-0.604,1.008-0.976l0.88,0.726c-0.482,0.608-1.015,1.047-1.596,1.312c-0.58,0.264-1.205,0.396-1.871,0.396
		c-0.598,0-1.153-0.105-1.664-0.319c-0.512-0.212-0.951-0.509-1.319-0.888c-0.367-0.38-0.658-0.828-0.871-1.346
		c-0.213-0.519-0.319-1.082-0.319-1.689s0.104-1.173,0.311-1.688c0.208-0.52,0.494-0.967,0.862-1.347
		c0.367-0.38,0.8-0.676,1.294-0.889c0.494-0.213,1.028-0.319,1.604-0.319c0.608,0,1.155,0.11,1.638,0.328
		c0.483,0.219,0.889,0.51,1.217,0.871c0.327,0.359,0.578,0.787,0.75,1.273c0.173,0.488,0.259,1.011,0.259,1.562v0.52L103.099,53.354
		L103.099,53.354z M108.583,52.421c0-0.771-0.23-1.396-0.69-1.871c-0.46-0.475-1.103-0.716-1.931-0.716
		c-0.368,0-0.725,0.072-1.069,0.216c-0.344,0.144-0.647,0.336-0.905,0.578c-0.259,0.241-0.466,0.517-0.621,0.827
		c-0.155,0.311-0.233,0.633-0.233,0.966H108.583L108.583,52.421z"/>
	<path fill="#FFFFFF" d="M118.344,57.077h-1.241v-12.21h1.241V57.077z"/>
	<path fill="#FFFFFF" d="M129.297,57.077h-1.139v-1.345h-0.035c-0.184,0.273-0.402,0.512-0.656,0.707
		c-0.252,0.193-0.516,0.354-0.793,0.481c-0.275,0.127-0.561,0.22-0.854,0.274c-0.293,0.057-0.572,0.088-0.836,0.088
		c-0.633,0-1.209-0.106-1.732-0.319c-0.523-0.212-0.975-0.509-1.355-0.888c-0.379-0.381-0.674-0.828-0.887-1.346
		c-0.213-0.519-0.32-1.082-0.32-1.689s0.107-1.173,0.32-1.688c0.213-0.52,0.508-0.969,0.887-1.347
		c0.379-0.38,0.832-0.676,1.355-0.889c0.523-0.214,1.1-0.319,1.732-0.319c0.264,0,0.543,0.029,0.836,0.087
		c0.293,0.06,0.578,0.149,0.854,0.275c0.275,0.127,0.541,0.287,0.793,0.481c0.254,0.195,0.473,0.434,0.656,0.707h0.035v-6.31h1.139
		V57.077z M121.932,53.042c0,0.448,0.072,0.868,0.215,1.259c0.146,0.393,0.35,0.73,0.613,1.02c0.264,0.287,0.582,0.515,0.957,0.682
		c0.373,0.167,0.795,0.25,1.268,0.25c0.459,0,0.889-0.084,1.285-0.25c0.396-0.167,0.738-0.395,1.025-0.682s0.512-0.627,0.672-1.02
		c0.162-0.391,0.242-0.811,0.242-1.259s-0.08-0.868-0.242-1.259c-0.16-0.391-0.385-0.73-0.672-1.018
		c-0.287-0.289-0.629-0.517-1.025-0.684c-0.396-0.167-0.826-0.25-1.285-0.25c-0.473,0-0.895,0.084-1.268,0.25
		c-0.375,0.167-0.693,0.395-0.957,0.684c-0.266,0.285-0.469,0.627-0.613,1.018C122.004,52.174,121.932,52.594,121.932,53.042z"/>
	<path fill="#FFFFFF" d="M133.436,45.902c0,0.24-0.088,0.438-0.26,0.595c-0.172,0.155-0.361,0.231-0.568,0.231
		s-0.396-0.076-0.566-0.231c-0.174-0.155-0.26-0.354-0.26-0.595c0-0.242,0.086-0.44,0.26-0.596c0.172-0.154,0.359-0.232,0.566-0.232
		s0.396,0.076,0.568,0.232C133.35,45.463,133.436,45.66,133.436,45.902z M133.176,57.077h-1.139v-8.071h1.139V57.077z"/>
	<path fill="#FFFFFF" d="M144.076,53.042c0,0.608-0.105,1.173-0.318,1.688c-0.213,0.519-0.51,0.968-0.889,1.346
		c-0.381,0.38-0.832,0.676-1.355,0.889c-0.521,0.213-1.1,0.318-1.73,0.318c-0.621,0-1.193-0.105-1.717-0.318
		c-0.522-0.213-0.975-0.509-1.354-0.889c-0.379-0.379-0.676-0.827-0.887-1.346c-0.215-0.518-0.32-1.08-0.32-1.688
		s0.105-1.173,0.32-1.688c0.211-0.519,0.508-0.968,0.887-1.347c0.381-0.38,0.832-0.675,1.354-0.888s1.096-0.319,1.717-0.319
		c0.633,0,1.211,0.106,1.73,0.319c0.523,0.213,0.977,0.508,1.355,0.888s0.674,0.828,0.889,1.347
		C143.971,51.869,144.076,52.434,144.076,53.042z M142.834,53.042c0-0.448-0.072-0.868-0.215-1.259
		c-0.145-0.391-0.348-0.73-0.613-1.018c-0.264-0.287-0.582-0.517-0.957-0.684c-0.373-0.167-0.795-0.25-1.268-0.25
		c-0.471,0-0.896,0.084-1.268,0.25c-0.373,0.167-0.689,0.395-0.947,0.684c-0.26,0.285-0.461,0.627-0.604,1.018
		c-0.146,0.391-0.217,0.811-0.217,1.259s0.071,0.868,0.217,1.259c0.144,0.393,0.345,0.73,0.604,1.02
		c0.258,0.287,0.574,0.515,0.947,0.682c0.371,0.167,0.797,0.25,1.268,0.25s0.895-0.084,1.268-0.25
		c0.375-0.167,0.693-0.395,0.957-0.682c0.266-0.287,0.469-0.627,0.613-1.02C142.762,53.91,142.834,53.49,142.834,53.042z"/>
	<path fill="#FFFFFF" d="M146.145,50.8c0-0.299-0.008-0.598-0.023-0.896c-0.018-0.299-0.037-0.598-0.062-0.897h1.227v1.226h0.033
		c0.275-0.473,0.658-0.828,1.146-1.068c0.488-0.242,0.975-0.362,1.457-0.362c0.219,0,0.451,0.022,0.699,0.069
		c0.246,0.046,0.486,0.129,0.715,0.25c0.23,0.12,0.447,0.29,0.648,0.509c0.199,0.22,0.369,0.5,0.508,0.847
		c0.23-0.519,0.594-0.928,1.096-1.226c0.5-0.299,1.02-0.449,1.561-0.449c1.035,0,1.801,0.274,2.293,0.82
		c0.494,0.546,0.742,1.323,0.742,2.337v5.121h-1.139v-4.71c0-0.815-0.145-1.443-0.432-1.88c-0.287-0.438-0.822-0.655-1.604-0.655
		c-0.426,0-0.782,0.083-1.069,0.249c-0.287,0.168-0.521,0.389-0.698,0.664c-0.179,0.275-0.308,0.59-0.388,0.939
		c-0.08,0.351-0.121,0.715-0.121,1.097v4.293h-1.14V52.37c0-0.815-0.146-1.443-0.432-1.88c-0.287-0.438-0.82-0.655-1.604-0.655
		c-0.068,0-0.227,0.022-0.475,0.069c-0.246,0.046-0.502,0.172-0.768,0.379c-0.268,0.207-0.502,0.518-0.715,0.931
		c-0.215,0.415-0.318,0.989-0.318,1.726v4.141h-1.141V50.8H146.145L146.145,50.8z"/>
	<path fill="#FFFFFF" d="M166.014,52.128v-0.207c0-1.392-0.688-2.087-2.07-2.087c-0.939,0-1.766,0.316-2.465,0.948l-0.688-0.812
		c0.758-0.781,1.896-1.174,3.414-1.174c0.393,0,0.77,0.061,1.129,0.174c0.361,0.114,0.676,0.289,0.939,0.525
		c0.266,0.234,0.479,0.531,0.639,0.888c0.162,0.356,0.24,0.782,0.24,1.276v3.604c0,0.312,0.016,0.635,0.043,0.976
		c0.029,0.34,0.062,0.616,0.098,0.836h-1.104c-0.035-0.195-0.062-0.407-0.078-0.64c-0.019-0.229-0.024-0.453-0.024-0.672h-0.035
		c-0.334,0.541-0.728,0.928-1.182,1.164c-0.453,0.234-1.009,0.354-1.664,0.354c-0.354,0-0.701-0.05-1.035-0.146
		c-0.334-0.099-0.629-0.247-0.89-0.446c-0.258-0.203-0.465-0.448-0.618-0.741c-0.156-0.294-0.233-0.636-0.233-1.026
		c0-0.654,0.17-1.17,0.51-1.544c0.338-0.373,0.765-0.651,1.274-0.836c0.511-0.185,1.06-0.299,1.64-0.345
		c0.58-0.047,1.11-0.069,1.597-0.069H166.014L166.014,52.128L166.014,52.128z M165.426,53.061c-0.287,0-0.646,0.015-1.076,0.043
		c-0.432,0.028-0.846,0.099-1.242,0.207c-0.396,0.108-0.734,0.278-1.018,0.508c-0.281,0.231-0.422,0.548-0.422,0.949
		c0,0.266,0.053,0.491,0.162,0.683c0.109,0.188,0.256,0.345,0.441,0.466c0.184,0.12,0.387,0.207,0.609,0.259
		c0.225,0.054,0.451,0.078,0.684,0.078c0.414,0,0.771-0.067,1.078-0.208c0.303-0.138,0.561-0.324,0.768-0.562
		c0.207-0.233,0.359-0.512,0.457-0.825c0.098-0.316,0.146-0.652,0.146-1.011v-0.586H165.426L165.426,53.061z"/>
	<path fill="#FFFFFF" d="M174.066,50.921c-0.172-0.334-0.402-0.598-0.689-0.794c-0.287-0.195-0.639-0.293-1.051-0.293
		c-0.197,0-0.395,0.023-0.596,0.068c-0.201,0.048-0.383,0.119-0.543,0.216c-0.16,0.099-0.291,0.222-0.389,0.371
		c-0.1,0.149-0.146,0.334-0.146,0.553c0,0.379,0.133,0.655,0.396,0.827c0.267,0.173,0.662,0.322,1.19,0.447l1.154,0.274
		c0.563,0.127,1.03,0.384,1.405,0.771c0.373,0.385,0.562,0.865,0.562,1.438c0,0.438-0.09,0.812-0.269,1.131
		c-0.178,0.314-0.414,0.573-0.707,0.774c-0.293,0.202-0.631,0.351-1.008,0.438c-0.381,0.092-0.767,0.14-1.155,0.14
		c-0.621,0-1.197-0.118-1.732-0.354c-0.534-0.236-0.991-0.643-1.37-1.217l0.981-0.673c0.229,0.366,0.521,0.661,0.871,0.879
		c0.353,0.22,0.768,0.327,1.25,0.327c0.229,0,0.461-0.025,0.688-0.077c0.229-0.052,0.434-0.132,0.612-0.241s0.32-0.25,0.431-0.422
		c0.108-0.173,0.164-0.374,0.164-0.604c0-0.402-0.148-0.692-0.447-0.871c-0.299-0.178-0.662-0.319-1.088-0.422l-1.103-0.26
		c-0.14-0.033-0.326-0.093-0.562-0.174c-0.235-0.078-0.467-0.199-0.69-0.361c-0.224-0.16-0.416-0.371-0.576-0.629
		c-0.162-0.261-0.241-0.578-0.241-0.957c0-0.414,0.084-0.775,0.25-1.086c0.166-0.312,0.391-0.563,0.672-0.761
		c0.282-0.194,0.603-0.342,0.957-0.438c0.356-0.099,0.726-0.146,1.104-0.146c0.563,0,1.088,0.109,1.569,0.328
		c0.481,0.218,0.854,0.592,1.121,1.121L174.066,50.921z"/>
</g>
<line fill="none" stroke="#FFFFFF" stroke-width="0.9615" stroke-linecap="round" stroke-linejoin="round" stroke-miterlimit="10" x1="74.782" y1="28.628" x2="74.782" y2="47.538"/>
<line fill="none" stroke="#000000" stroke-width="0.9615" stroke-linecap="round" stroke-linejoin="round" stroke-miterlimit="10" x1="40.487" y1="27.026" x2="40.487" y2="41.448"/>
<line fill="none" stroke="#000000" stroke-width="0.9615" stroke-linecap="round" stroke-linejoin="round" stroke-miterlimit="10" x1="60.679" y1="46.257" x2="60.679" y2="58.436"/>
<path fill="none" stroke="#FFFFFF" stroke-width="0.9615" stroke-linecap="round" stroke-linejoin="round" stroke-miterlimit="10" d="
	M49.995,12.282c0,0,10.332-0.108,10.257,10.47c-0.054,7.479-6.678,9.081-6.678,9.081"/>
<line fill="none" stroke="#333333" stroke-width="1.6026" stroke-linecap="round" stroke-linejoin="round" stroke-miterlimit="10" x1="58.115" y1="44.333" x2="58.115" y2="57.475"/>
<line fill="none" stroke="#333333" stroke-width="0.9615" stroke-miterlimit="10" x1="27.079" y1="34.247" x2="36.801" y2="34.28"/>
</svg>
