<svg id="Capa_1" data-name="Capa 1" xmlns="http://www.w3.org/2000/svg" viewBox="0 0 386.04 110.57"><defs><style>.cls-1{fill:#5e5e5e;}</style></defs><title>logo_britishm</title><path class="cls-1" d="M143.79,59.39V12.88c0.36,0,.7-0.06,1-0.06,5.18,0,10.36,0,15.54,0a20.7,20.7,0,0,1,8.3,1.36,11.76,11.76,0,0,1,6.67,14.2,10.11,10.11,0,0,1-3.88,5.36c-0.38.28-.78,0.55-1.24,0.9a1.67,1.67,0,0,0,.43.27,10.67,10.67,0,0,1,7.69,14.25,13.09,13.09,0,0,1-8.74,8.93,21.89,21.89,0,0,1-7.46,1.31c-5.91.07-11.84,0-17.76,0A3,3,0,0,1,143.79,59.39Zm8-20a5,5,0,0,0-.1.64q0,5.78,0,11.56a0.68,0.68,0,0,0,.52.81h0a0.63,0.63,0,0,0,.33,0c3.16,0,6.3.07,9.44,0a17.71,17.71,0,0,0,4.72-.77,6.25,6.25,0,0,0,3.62-8.06h0a6.15,6.15,0,0,0-2.26-2.9,8.15,8.15,0,0,0-4.41-1.18c-2.86,0-5.72,0-8.57,0h-3.27Zm-0.06-7.19c3.41,0,6.71,0,10,0a6.59,6.59,0,0,0,4.17-1.55A6.18,6.18,0,0,0,167.56,24a5.71,5.71,0,0,0-5.46-3.87C158.92,20,155.74,20,152.55,20a0.73,0.73,0,0,0-.88.53,0.65,0.65,0,0,0,0,.37c0,3.54,0,7.08,0,10.62C151.7,31.68,151.74,31.9,151.75,32.16Z" transform="translate(-11.51 -8.34)"/><path class="cls-1" d="M270.59,68.19c2.77,0,5.5,0,8.22,0a1.55,1.55,0,0,1,.8.71l20.59,30.2c0.2,0.28.38,0.53,0.73,1V68.26h7.69v46.56c-1.78,0-3.57-.09-5.36,0a2.44,2.44,0,0,1-2.42-1.27Q290,97.59,279,81.65c-0.17-.27-0.36-0.5-0.7-1v34.05h-7.75V68.19Z" transform="translate(-11.51 -8.34)"/><path class="cls-1" d="M220.24,91.43a26.78,26.78,0,0,1-3.71,13.92,22.09,22.09,0,0,1-36.89.34A25.75,25.75,0,0,1,176,90.37a25,25,0,0,1,4.36-13.68A20.43,20.43,0,0,1,197,67.8a21.06,21.06,0,0,1,22.68,18.35C220,87.91,220.07,89.68,220.24,91.43Zm-35.87,0A19.5,19.5,0,0,0,186.92,102a12.88,12.88,0,0,0,22.44-.17,18.85,18.85,0,0,0,2.42-8.63,20.37,20.37,0,0,0-2.23-11.37,12.93,12.93,0,0,0-23,.09,19.2,19.2,0,0,0-2.2,9.58h0Z" transform="translate(-11.51 -8.34)"/><path class="cls-1" d="M192.32,59.4h-7.79V12.89c0.3,0,.57-0.06.85-0.06,5.12,0,10.22,0,15.34,0a20.58,20.58,0,0,1,9.43,2,12.31,12.31,0,0,1,6.58,12.77A11.61,11.61,0,0,1,208.61,38a1.12,1.12,0,0,0-.33.2,43.28,43.28,0,0,1,7,11.23c1.59,3,3.06,6,4.58,9,0.14,0.28.26,0.57,0.41,1-2.91,0-5.69,0-8.5,0a1.34,1.34,0,0,1-.82-0.73c-1.78-3.54-3.45-7.11-5.26-10.62-0.84-1.62-1.81-3.18-2.8-4.72a4.22,4.22,0,0,0-4-2c-1.86.09-3.73,0.06-5.59,0-0.78,0-1,.24-1,1,0,5.27,0,10.55,0,15.82V59.4Zm0-25.17c1.62,0,3.11,0,4.62,0a50.32,50.32,0,0,0,5.86-.24,6.51,6.51,0,0,0,5.94-6.78,6.21,6.21,0,0,0-5.44-6.89l-0.23,0A104.71,104.71,0,0,0,192.55,20a0.43,0.43,0,0,0-.18.14V34.23Z" transform="translate(-11.51 -8.34)"/><path class="cls-1" d="M340.78,12.88h7.82v19c0.45,0,.81.06,1.14,0.06,6.85,0,13.71,0,20.54,0,1,0,1.17-.3,1.17-1.19,0-5.57,0-11.13,0-16.69V12.89h7.83V59.37h-7.78V39.44H348.65V59.37h-7.88V12.88Z" transform="translate(-11.51 -8.34)"/><path class="cls-1" d="M255.42,68.24h7.9V96.83a25.91,25.91,0,0,1-1,7.81,14.4,14.4,0,0,1-11.15,10.09,27.39,27.39,0,0,1-14.76-.37,14.33,14.33,0,0,1-10.21-11.94,31,31,0,0,1-.44-5.26c0-9.28,0-18.6,0-27.88,0-.31,0-0.63,0-1h7.86v1.14c0,9.28,0,18.58,0,27.88a20,20,0,0,0,.45,4.31,8,8,0,0,0,6.17,6.23,16.59,16.59,0,0,0,8.3.06,8.43,8.43,0,0,0,6.72-8.23c0.1-1.29.14-2.57,0.14-3.85q0-13.12,0-26.26V68.24h0Z" transform="translate(-11.51 -8.34)"/><path class="cls-1" d="M330.66,22.55c-1.45-.6-2.63-1.12-3.84-1.54A23.86,23.86,0,0,0,314,19.7a8.27,8.27,0,0,0-2.16.74,4.52,4.52,0,0,0-2.15,6l0,0a4,4,0,0,0,.81,1.18,12.33,12.33,0,0,0,5,3.06c3.21,1.25,6.43,2.4,9.61,3.71a14.83,14.83,0,0,1,5.49,3.84,12.62,12.62,0,0,1-1.21,17.12,17,17,0,0,1-9.4,4.34,30.25,30.25,0,0,1-19.85-3.41c-0.16-.09-0.31-0.21-0.54-0.37,1.08-2.1,2.13-4.18,3.2-6.24,1.69,0.75,3.33,1.59,5,2.18a19.91,19.91,0,0,0,12.5.64,6,6,0,0,0,4.39-3.85,5,5,0,0,0-2-5.89,28.43,28.43,0,0,0-5.19-2.67c-3.23-1.36-6.57-2.42-9.72-3.92a10.9,10.9,0,0,1-6.43-7.93,12.24,12.24,0,0,1,9-14.8l0.3-.07A30.37,30.37,0,0,1,330,14.73a1.16,1.16,0,0,1,.67.65C330.68,17.73,330.66,20.06,330.66,22.55Z" transform="translate(-11.51 -8.34)"/><path class="cls-1" d="M172.06,106.36l2.32,6.51c-2,.64-3.85,1.36-5.79,1.81a27.83,27.83,0,0,1-13.55,0,18.7,18.7,0,0,1-13.45-11.77,28.26,28.26,0,0,1,1-24.16,19.8,19.8,0,0,1,18.08-11,29.79,29.79,0,0,1,12.24,2.12L174,70.36a2.08,2.08,0,0,1,.3.23q-1.13,3.24-2.29,6.47c-1.78-.57-3.48-1.25-5.25-1.64a14.57,14.57,0,0,0-13.05,2.43,15.43,15.43,0,0,0-5.42,9.41A20.83,20.83,0,0,0,149.51,100a13.45,13.45,0,0,0,15.13,8.2A69,69,0,0,0,172.06,106.36Z" transform="translate(-11.51 -8.34)"/><path class="cls-1" d="M349.65,70.5q-1.17,3.37-2.3,6.54c-1.78-.57-3.44-1.24-5.18-1.64A14.65,14.65,0,0,0,329,77.85a16,16,0,0,0-5.59,10.28,20.5,20.5,0,0,0,1.45,12,13.46,13.46,0,0,0,15,8.1,71.27,71.27,0,0,0,7.51-1.82c0.68,1.91,1.46,4.08,2.3,6.5-2,.63-3.85,1.35-5.8,1.81a28.19,28.19,0,0,1-13.46,0,18.68,18.68,0,0,1-13.52-11.83A28.24,28.24,0,0,1,318,78.58,19.79,19.79,0,0,1,336,67.8a29.56,29.56,0,0,1,12.34,2.12Z" transform="translate(-11.51 -8.34)"/><path class="cls-1" d="M254.82,20.09h-14.9V12.91h37.65V20H262.75V59.37H254.8V20.09h0Z" transform="translate(-11.51 -8.34)"/><path class="cls-1" d="M379.31,107.68h18.24v7.05h-26V68.24h7.81v39.44Z" transform="translate(-11.51 -8.34)"/><path class="cls-1" d="M363.9,68.26v46.51h-7.78V68.26h7.78Z" transform="translate(-11.51 -8.34)"/><path class="cls-1" d="M283.94,59.37V12.82h5.7c2.15,0,2.15,0,2.15,2.1V59.37h-7.85Z" transform="translate(-11.51 -8.34)"/><path class="cls-1" d="M225.81,12.88h7.75V59.37h-7.75V12.88Z" transform="translate(-11.51 -8.34)"/><circle class="cls-1" cx="83.93" cy="26.8" r="26.8"/><circle class="cls-1" cx="26.8" cy="26.8" r="26.8"/><circle class="cls-1" cx="83.93" cy="83.77" r="26.8"/><circle class="cls-1" cx="26.8" cy="83.77" r="26.8"/></svg>