<?xml version="1.0" encoding="utf-8"?>
<!-- Generator: Adobe Illustrator 16.0.0, SVG Export Plug-In . SVG Version: 6.00 Build 0)  -->
<!DOCTYPE svg PUBLIC "-//W3C//DTD SVG 1.1//EN" "http://www.w3.org/Graphics/SVG/1.1/DTD/svg11.dtd">
<svg version="1.1" id="Capa_1" xmlns="http://www.w3.org/2000/svg" xmlns:xlink="http://www.w3.org/1999/xlink" x="0px" y="0px"
	 width="147px" height="111.877px" viewBox="0 0 147 111.877" enable-background="new 0 0 147 111.877" xml:space="preserve">
<g>
	<g>
		<g>
			<path fill="#FFFFFF" d="M2.122,77.346v6.85c0,2.604,1.158,3.713,2.701,3.713c1.736,0,2.846-1.156,2.846-3.713v-6.85h1.495v6.753
				c0,3.567-1.881,5.017-4.389,5.017c-2.363,0-4.147-1.352-4.147-4.969v-6.849L2.122,77.346z"/>
			<path fill="#FFFFFF" d="M13.311,82.893c0-0.868,0-1.543-0.048-2.268h1.351l0.096,1.398h0.048
				c0.434-0.771,1.399-1.544,2.749-1.544c1.158,0,2.942,0.675,2.942,3.521v4.97h-1.496v-4.823c0-1.352-0.482-2.46-1.929-2.46
				c-1.013,0-1.784,0.724-2.025,1.544c-0.048,0.192-0.097,0.434-0.097,0.723v5.018h-1.495L13.311,82.893z"/>
			<path fill="#FFFFFF" d="M26.188,78.311c0,0.531-0.337,0.917-0.964,0.917c-0.531,0-0.917-0.435-0.917-0.917
				c0-0.529,0.386-0.965,0.965-0.965S26.188,77.781,26.188,78.311z M24.5,88.97v-8.345h1.495v8.345H24.5z"/>
			<path fill="#FFFFFF" d="M37.377,76.72v10.078c0,0.725,0,1.592,0.048,2.172h-1.351l-0.048-1.447h-0.049
				c-0.482,0.916-1.495,1.64-2.845,1.64c-2.026,0-3.569-1.688-3.569-4.244c0-2.748,1.688-4.484,3.713-4.484
				c1.254,0,2.123,0.578,2.508,1.254h0.048v-4.967L37.377,76.72L37.377,76.72z M35.834,84c0-0.191,0-0.434-0.048-0.627
				c-0.242-0.963-1.062-1.734-2.17-1.734c-1.543,0-2.508,1.398-2.508,3.23c0,1.688,0.82,3.086,2.459,3.086
				c1.013,0,1.929-0.676,2.219-1.783c0.048-0.193,0.048-0.436,0.048-0.676V84z"/>
			<path fill="#FFFFFF" d="M46.105,88.97l-0.096-1.062h-0.049c-0.482,0.676-1.35,1.252-2.556,1.252c-1.688,0-2.557-1.205-2.557-2.41
				c0-2.025,1.785-3.135,5.015-3.086v-0.193c0-0.676-0.192-1.93-1.88-1.93c-0.772,0-1.592,0.24-2.17,0.627l-0.338-1.014
				c0.676-0.434,1.688-0.723,2.75-0.723c2.556,0,3.183,1.736,3.183,3.424v3.137c0,0.722,0.049,1.445,0.145,1.978H46.105
				L46.105,88.97z M45.914,84.725c-1.64-0.048-3.521,0.241-3.521,1.882c0,0.964,0.675,1.446,1.447,1.446
				c1.061,0,1.785-0.676,2.026-1.398c0.048-0.145,0.096-0.338,0.096-0.481L45.914,84.725z"/>
			<path fill="#FFFFFF" d="M58.646,76.72v10.078c0,0.725,0,1.592,0.049,2.172h-1.352l-0.048-1.447h-0.048
				c-0.482,0.916-1.495,1.64-2.846,1.64c-2.025,0-3.568-1.688-3.568-4.244c0-2.748,1.688-4.484,3.713-4.484
				c1.254,0,2.123,0.578,2.508,1.254h0.049v-4.967L58.646,76.72L58.646,76.72z M57.104,84c0-0.191,0-0.434-0.049-0.627
				c-0.24-0.963-1.061-1.734-2.17-1.734c-1.543,0-2.508,1.398-2.508,3.23c0,1.688,0.82,3.086,2.46,3.086
				c1.013,0,1.929-0.676,2.218-1.783c0.049-0.193,0.049-0.436,0.049-0.676V84L57.104,84z"/>
			<path fill="#FFFFFF" d="M75.236,76.72v10.078c0,0.725,0,1.592,0.048,2.172h-1.351l-0.047-1.447h-0.049
				c-0.482,0.916-1.496,1.64-2.846,1.64c-2.025,0-3.569-1.688-3.569-4.244c0-2.748,1.688-4.484,3.714-4.484
				c1.254,0,2.122,0.578,2.508,1.254h0.049v-4.967L75.236,76.72L75.236,76.72z M73.741,84c0-0.191,0-0.434-0.048-0.627
				c-0.241-0.963-1.062-1.734-2.17-1.734c-1.543,0-2.508,1.398-2.508,3.23c0,1.688,0.819,3.086,2.459,3.086
				c1.014,0,1.93-0.676,2.219-1.783c0.048-0.193,0.048-0.436,0.048-0.676V84L73.741,84z"/>
			<path fill="#FFFFFF" d="M80.253,85.062c0.048,2.025,1.351,2.895,2.845,2.895c1.062,0,1.736-0.192,2.314-0.435l0.242,1.062
				c-0.531,0.24-1.447,0.531-2.75,0.531c-2.557,0-4.1-1.688-4.1-4.197c0-2.508,1.495-4.484,3.906-4.484
				c2.7,0,3.424,2.411,3.424,3.906c0,0.289-0.048,0.531-0.048,0.724L80.253,85.062L80.253,85.062z M84.688,84
				c0-0.963-0.386-2.459-2.121-2.459c-1.543,0-2.219,1.398-2.313,2.459H84.688z"/>
			<path fill="#FFFFFF" d="M96.843,85.304l-1.206,3.666h-1.543l3.955-11.575h1.783l3.955,11.575h-1.592l-1.254-3.666H96.843z
				 M100.652,84.146l-1.156-3.326c-0.242-0.772-0.436-1.447-0.58-2.123h-0.048c-0.192,0.676-0.339,1.397-0.578,2.123l-1.157,3.375
				h3.52V84.146L100.652,84.146z"/>
			<path fill="#FFFFFF" d="M106.971,83.328c0-1.062-0.049-1.932-0.049-2.703h1.352l0.049,1.447h0.047
				c0.628-1.013,1.592-1.64,2.941-1.64c2.026,0,3.521,1.688,3.521,4.244c0,2.989-1.832,4.483-3.762,4.483
				c-1.109,0-2.073-0.48-2.557-1.302h-0.048v4.534h-1.495V83.328L106.971,83.328z M108.466,85.593c0,0.241,0.048,0.434,0.048,0.628
				c0.289,1.061,1.207,1.783,2.268,1.783c1.592,0,2.508-1.303,2.508-3.23c0-1.688-0.868-3.087-2.459-3.087
				c-1.014,0-1.979,0.724-2.268,1.881c-0.049,0.192-0.097,0.435-0.097,0.628V85.593z"/>
			<path fill="#FFFFFF" d="M126.021,84.725c0,3.087-2.123,4.438-4.147,4.438c-2.267,0-4.003-1.64-4.003-4.291
				c0-2.799,1.832-4.438,4.148-4.438C124.332,80.433,126.021,82.168,126.021,84.725z M119.365,84.82
				c0,1.834,1.062,3.184,2.508,3.184c1.447,0,2.508-1.35,2.508-3.229c0-1.399-0.724-3.183-2.508-3.183
				C120.186,81.591,119.365,83.23,119.365,84.82z"/>
			<path fill="#FFFFFF" d="M129.928,80.625l1.832,4.92c0.192,0.529,0.387,1.205,0.531,1.688h0.048
				c0.144-0.48,0.338-1.156,0.53-1.736l1.64-4.871h1.593l-2.268,5.934c-1.062,2.846-1.833,4.34-2.846,5.208
				c-0.725,0.676-1.495,0.917-1.881,0.965l-0.387-1.253c0.387-0.098,0.867-0.339,1.303-0.725c0.435-0.338,0.916-0.916,1.254-1.688
				c0.048-0.146,0.098-0.29,0.098-0.337c0-0.097-0.05-0.193-0.098-0.387l-3.086-7.668L129.928,80.625L129.928,80.625z"/>
			<path fill="#FFFFFF" d="M146.52,84.725c0,3.087-2.123,4.438-4.149,4.438c-2.267,0-4.001-1.64-4.001-4.291
				c0-2.799,1.832-4.438,4.146-4.438C144.878,80.433,146.52,82.168,146.52,84.725z M139.861,84.82c0,1.834,1.062,3.184,2.508,3.184
				c1.447,0,2.509-1.35,2.509-3.229c0-1.399-0.724-3.183-2.509-3.183C140.682,81.591,139.861,83.23,139.861,84.82z"/>
		</g>
		<g>
			<path fill="#FFFFFF" d="M0.145,103.728c0-0.966-0.048-1.688-0.048-2.412h1.206l0.048,1.255h0.048
				c0.531-0.916,1.398-1.447,2.604-1.447c1.785,0,3.135,1.494,3.135,3.762c0,2.652-1.64,3.955-3.376,3.955
				c-0.965,0-1.833-0.436-2.267-1.157l0,0v4.003H0.144L0.145,103.728L0.145,103.728z M1.495,105.705c0,0.19,0.048,0.385,0.048,0.529
				c0.241,0.916,1.061,1.592,2.026,1.592c1.399,0,2.267-1.158,2.267-2.847c0-1.493-0.771-2.749-2.218-2.749
				c-0.917,0-1.785,0.676-2.026,1.688c-0.048,0.146-0.096,0.388-0.096,0.531L1.495,105.705L1.495,105.705z"/>
			<path fill="#FFFFFF" d="M14.372,108.744l-0.097-0.916h-0.048c-0.434,0.576-1.206,1.106-2.267,1.106
				c-1.495,0-2.267-1.062-2.267-2.121c0-1.784,1.592-2.75,4.437-2.75v-0.146c0-0.625-0.145-1.688-1.688-1.688
				c-0.675,0-1.398,0.193-1.929,0.53l-0.289-0.867c0.627-0.386,1.495-0.675,2.411-0.675c2.267,0,2.797,1.542,2.797,3.038v2.749
				c0,0.626,0.048,1.254,0.145,1.783h-1.206L14.372,108.744L14.372,108.744z M14.179,104.934c-1.447-0.05-3.135,0.24-3.135,1.688
				c0,0.867,0.578,1.303,1.254,1.303c0.964,0,1.591-0.627,1.784-1.254c0.048-0.146,0.097-0.289,0.097-0.434V104.934z"/>
			<path fill="#FFFFFF" d="M19.099,103.629c0-0.867,0-1.639-0.048-2.313h1.157l0.048,1.446h0.048
				c0.337-1.012,1.157-1.641,2.025-1.641c0.145,0,0.241,0,0.386,0.049v1.255c-0.145-0.05-0.29-0.05-0.435-0.05
				c-0.964,0-1.64,0.725-1.784,1.738c-0.048,0.191-0.048,0.385-0.048,0.625v3.955h-1.351v-5.064H19.099z"/>
			<path fill="#FFFFFF" d="M29.564,108.744l-0.096-0.916h-0.049c-0.434,0.576-1.206,1.106-2.267,1.106
				c-1.495,0-2.267-1.062-2.267-2.121c0-1.784,1.592-2.75,4.437-2.75v-0.146c0-0.625-0.145-1.688-1.688-1.688
				c-0.675,0-1.398,0.193-1.929,0.53l-0.289-0.867c0.627-0.386,1.495-0.675,2.412-0.675c2.267,0,2.797,1.542,2.797,3.038v2.749
				c0,0.626,0.048,1.254,0.145,1.783h-1.206V108.744L29.564,108.744z M29.371,104.934c-1.447-0.05-3.135,0.24-3.135,1.688
				c0,0.867,0.579,1.303,1.254,1.303c0.965,0,1.591-0.627,1.785-1.254c0.048-0.146,0.096-0.289,0.096-0.434V104.934z"/>
			<path fill="#FFFFFF" d="M39.692,105.27c0.048,1.833,1.206,2.559,2.556,2.559c0.965,0,1.543-0.146,2.025-0.388l0.241,0.964
				c-0.482,0.194-1.302,0.436-2.459,0.436c-2.267,0-3.617-1.495-3.617-3.715c0-2.217,1.302-4.002,3.472-4.002
				c2.412,0,3.039,2.121,3.039,3.473c0,0.289-0.048,0.482-0.048,0.627h-5.208L39.692,105.27L39.692,105.27z M43.646,104.306
				c0-0.868-0.337-2.17-1.881-2.17c-1.351,0-1.978,1.254-2.074,2.17H43.646z"/>
			<path fill="#FFFFFF" d="M48.084,97.891h1.35v10.854h-1.35V97.891z"/>
			<path fill="#FFFFFF" d="M59.514,105.463l-1.062,3.23h-1.351l3.473-10.271h1.592l3.521,10.271h-1.398l-1.109-3.23H59.514z
				 M62.891,104.449l-1.014-2.939c-0.24-0.676-0.386-1.303-0.529-1.881h-0.05c-0.144,0.625-0.337,1.254-0.53,1.881l-1.013,2.99
				L62.891,104.449L62.891,104.449z"/>
			<path fill="#FFFFFF" d="M68.533,103.728c0-0.966-0.049-1.688-0.049-2.412h1.205l0.049,1.255h0.048
				c0.53-0.916,1.397-1.447,2.604-1.447c1.784,0,3.133,1.494,3.133,3.762c0,2.652-1.64,3.955-3.375,3.955
				c-0.965,0-1.834-0.436-2.268-1.157h-0.048v4.003h-1.302v-7.958H68.533z M69.883,105.705c0,0.19,0.049,0.385,0.049,0.529
				c0.24,0.916,1.061,1.592,2.024,1.592c1.397,0,2.267-1.158,2.267-2.847c0-1.493-0.771-2.749-2.219-2.749
				c-0.917,0-1.783,0.676-2.025,1.688c-0.047,0.146-0.097,0.388-0.097,0.531L69.883,105.705L69.883,105.705z"/>
			<path fill="#FFFFFF" d="M78.709,103.629c0-0.867,0-1.639-0.048-2.313h1.155l0.051,1.446h0.047
				c0.339-1.012,1.158-1.641,2.025-1.641c0.146,0,0.24,0,0.387,0.049v1.255c-0.146-0.05-0.29-0.05-0.436-0.05
				c-0.964,0-1.639,0.725-1.783,1.738c-0.049,0.191-0.049,0.385-0.049,0.625v3.955h-1.351L78.709,103.629L78.709,103.629z"/>
			<path fill="#FFFFFF" d="M85.702,105.27c0.048,1.833,1.205,2.559,2.556,2.559c0.965,0,1.543-0.146,2.025-0.388l0.242,0.964
				c-0.483,0.194-1.303,0.436-2.461,0.436c-2.267,0-3.616-1.495-3.616-3.715c0-2.217,1.302-4.002,3.472-4.002
				c2.411,0,3.039,2.121,3.039,3.473c0,0.289-0.048,0.482-0.048,0.627h-5.209V105.27L85.702,105.27z M89.657,104.306
				c0-0.868-0.339-2.17-1.882-2.17c-1.351,0-1.978,1.254-2.073,2.17H89.657z"/>
			<path fill="#FFFFFF" d="M94.094,103.342c0-0.771,0-1.4-0.049-1.979h1.206l0.097,1.205h0.049c0.386-0.724,1.205-1.398,2.459-1.398
				c1.014,0,2.604,0.628,2.604,3.136v4.39h-1.351v-4.246c0-1.205-0.435-2.168-1.688-2.168c-0.869,0-1.592,0.627-1.785,1.35
				c-0.049,0.146-0.096,0.386-0.096,0.628v4.437h-1.447V103.342z"/>
			<path fill="#FFFFFF" d="M110.346,97.891v8.923c0,0.675,0,1.399,0.049,1.931h-1.205l-0.049-1.304h-0.048
				c-0.435,0.82-1.302,1.447-2.508,1.447c-1.784,0-3.185-1.495-3.185-3.763c0-2.459,1.496-3.955,3.328-3.955
				c1.109,0,1.881,0.531,2.219,1.109h0.049v-4.39L110.346,97.891L110.346,97.891z M108.996,104.354c0-0.145,0-0.386-0.048-0.578
				c-0.193-0.867-0.917-1.544-1.931-1.544c-1.397,0-2.218,1.206-2.218,2.847c0,1.494,0.724,2.75,2.171,2.75
				c0.916,0,1.735-0.58,1.978-1.593c0.048-0.194,0.048-0.386,0.048-0.579V104.354z"/>
			<path fill="#FFFFFF" d="M115.507,99.242c0,0.435-0.337,0.819-0.866,0.819c-0.483,0-0.82-0.386-0.82-0.819
				c0-0.481,0.337-0.819,0.82-0.819C115.17,98.422,115.507,98.76,115.507,99.242z M114.012,108.744v-7.379h1.35v7.379H114.012z"/>
			<path fill="#FFFFFF" d="M118.255,107.923l3.329-4.341c0.337-0.387,0.626-0.771,0.965-1.157v-0.05h-4.004v-1.061h5.643v0.82
				l-3.278,4.291c-0.289,0.435-0.627,0.771-0.964,1.158v0.048h4.34v1.062h-5.979v-0.771H118.255L118.255,107.923z"/>
			<path fill="#FFFFFF" d="M131.085,108.744l-0.096-0.916h-0.05c-0.436,0.576-1.205,1.106-2.268,1.106
				c-1.494,0-2.268-1.062-2.268-2.121c0-1.784,1.592-2.75,4.438-2.75v-0.146c0-0.625-0.145-1.688-1.688-1.688
				c-0.674,0-1.397,0.193-1.93,0.53l-0.287-0.867c0.627-0.386,1.494-0.675,2.41-0.675c2.268,0,2.797,1.542,2.797,3.038v2.749
				c0,0.626,0.049,1.254,0.146,1.783h-1.206V108.744L131.085,108.744z M130.893,104.934c-1.447-0.05-3.136,0.24-3.136,1.688
				c0,0.867,0.579,1.303,1.255,1.303c0.965,0,1.592-0.627,1.783-1.254c0.049-0.146,0.098-0.289,0.098-0.434V104.934L130.893,104.934
				z"/>
			<path fill="#FFFFFF" d="M134.025,110.865c0.629-0.049,1.158-0.192,1.449-0.578c0.385-0.436,0.48-1.014,0.48-2.799v-6.173h1.352
				v6.703c0,1.447-0.242,2.363-0.869,3.039c-0.578,0.579-1.592,0.819-2.268,0.819L134.025,110.865z M137.548,99.242
				c0,0.435-0.29,0.819-0.819,0.819c-0.482,0-0.82-0.386-0.82-0.819c0-0.481,0.338-0.819,0.869-0.819
				C137.162,98.422,137.548,98.76,137.548,99.242z"/>
			<path fill="#FFFFFF" d="M141.743,105.27c0.049,1.833,1.206,2.559,2.557,2.559c0.964,0,1.543-0.146,2.024-0.388l0.242,0.964
				c-0.482,0.194-1.303,0.436-2.461,0.436c-2.268,0-3.617-1.495-3.617-3.715c0-2.217,1.304-4.002,3.473-4.002
				c2.412,0,3.039,2.121,3.039,3.473c0,0.289-0.048,0.482-0.048,0.627h-5.209V105.27z M145.648,104.306
				c0-0.868-0.336-2.17-1.879-2.17c-1.352,0-1.979,1.254-2.074,2.17H145.648z"/>
		</g>
	</g>
	<g>
		<g>
			<path fill="#FFFFFF" d="M64.48,63.166c-6.896-0.096-12.49-5.738-12.49-12.684V36.544c0-5.064-4.196-9.164-9.308-9.019
				c-4.919,0.144-8.729,4.292-8.729,9.211v9.453c0,9.164-7.283,16.783-16.446,16.928C8.199,63.263,0.579,55.739,0.579,46.431v-21.75
				c0-2.123,1.736-3.858,3.858-3.858l0,0c2.122,0,3.858,1.736,3.858,3.858v21.558c0,4.872,3.81,9.019,8.729,9.164
				c5.064,0.145,9.259-3.955,9.259-8.97v-9.646c0-9.163,7.283-16.832,16.446-16.976c9.308-0.145,16.977,7.379,16.977,16.687v13.938
				c0,2.749,2.218,4.967,4.919,5.016c2.797,0.048,5.064-2.315,5.064-5.112V36.45c0-9.164,7.427-16.591,16.59-16.591h0.24
				c9.164,0,16.59,7.427,16.59,16.591v6.077h-7.715V36.45c0-4.919-4.004-8.874-8.875-8.874h-0.24c-4.92,0-8.875,4.003-8.875,8.874
				v13.793C77.406,57.33,71.57,63.264,64.48,63.166z"/>
		</g>
		<g>
			<path fill="#FFFFFF" d="M142.659,62.01L142.659,62.01c-2.122,0-3.857-1.736-3.857-3.858V36.449c0-4.919-4.003-8.874-8.874-8.874
				h-0.193c-4.92,0-8.873,4.003-8.873,8.874v6.415h-7.717v-6.415c0-9.164,7.428-16.591,16.59-16.591h0.193
				c9.162,0,16.592,7.427,16.592,16.591v21.703C146.52,60.272,144.781,62.01,142.659,62.01z"/>
		</g>
		<g>
			<path fill="#FFFFFF" d="M116.953,62.01L116.953,62.01c-2.122,0-3.857-1.736-3.857-3.858V43.585h7.717V58.15
				C120.764,60.272,119.075,62.01,116.953,62.01z"/>
		</g>
		<g>
			<path fill="#FFFFFF" d="M129.493,46.094H86.137c-1.979,0-3.521-1.591-3.521-3.521l0,0c0-1.977,1.592-3.521,3.521-3.521h43.356
				c1.978,0,3.521,1.591,3.521,3.521l0,0C133.062,44.502,131.52,46.094,129.493,46.094z"/>
		</g>
		<g>
			<path fill="#FFFFFF" d="M43.309,46.384H30.143v-7.09H43.31c1.978,0,3.521,1.592,3.521,3.521l0,0
				C46.83,44.792,45.287,46.384,43.309,46.384z"/>
		</g>
	</g>
	<rect y="69.099" fill="#FFFFFF" width="147" height="0.964"/>
</g>
</svg>
