<svg id="Capa_2" data-name="Capa 2" xmlns="http://www.w3.org/2000/svg" viewBox="0 0 27.152 7.777">
  <defs>
    <style>
      .cls-1 {
        fill: #fff;
      }
    </style>
  </defs>
  <title>logo_british_acce</title>
  <g>
    <path class="cls-1" d="M10.728,4.30567v-3.271c0.025-.001.049-0.004,0.072-0.004,0.364,0,.729-0.001,1.093,0a1.45577,1.45577,0,0,1,.584.096,0.82742,0.82742,0,0,1,.469.999,0.71133,0.71133,0,0,1-.273.377c-0.027.02-.055,0.039-0.087,0.063a0.11728,0.11728,0,0,0,.03.019,0.75044,0.75044,0,0,1,.541,1.002,0.92079,0.92079,0,0,1-.615.628,1.5394,1.5394,0,0,1-.525.092c-0.416.005-.833,0.002-1.249,0.002A0.21382,0.21382,0,0,1,10.728,4.30567Zm0.564-1.409a0.35021,0.35021,0,0,0-.007.045q0,0.4065-.001.813a0.04787,0.04787,0,0,0,.037.057,0.04445,0.04445,0,0,0,.023-0.001c0.222-.001.443,0.005,0.664-0.003a1.24573,1.24573,0,0,0,.332-0.054,0.43945,0.43945,0,0,0,.254-0.568,0.43225,0.43225,0,0,0-.159-0.204,0.573,0.573,0,0,0-.31-0.083c-0.201-.003-0.402-0.002-0.603-0.003C11.446,2.89567,11.369,2.89667,11.292,2.89667Zm-0.004-.506c0.24,0,.472.003,0.705-0.001a0.46323,0.46323,0,0,0,.293-0.109,0.43493,0.43493,0,0,0,.114-0.466,0.40153,0.40153,0,0,0-.384-0.272c-0.224-.008-0.448-0.005-0.672-0.01a0.05145,0.05145,0,0,0-.062.037,0.04574,0.04574,0,0,0,.001.026c0.001,0.249,0,.498.001,0.747C11.284,2.35667,11.287,2.37267,11.288,2.39067Z" transform="translate(-1.424 -0.71567)"/>
    <path class="cls-1" d="M19.646,4.92467c0.195,0,.387-0.001.578,0.002a0.109,0.109,0,0,1,.056.05q0.7245,1.062,1.448,2.124c0.014,0.02.027,0.037,0.051,0.068v-2.239H22.32v3.275c-0.125,0-.251-0.006-0.377.002a0.17152,0.17152,0,0,1-.17-0.089q-0.762-1.125-1.533-2.246c-0.012-.019-0.025-0.035-0.049-0.067v2.395H19.646v-3.275Z" transform="translate(-1.424 -0.71567)"/>
    <path class="cls-1" d="M16.105,6.55967a1.88371,1.88371,0,0,1-.261.979,1.55387,1.55387,0,0,1-2.595.024,1.81139,1.81139,0,0,1-.253-1.078,1.75937,1.75937,0,0,1,.307-0.962,1.43713,1.43713,0,0,1,1.168-.625,1.481,1.481,0,0,1,1.595,1.291C16.088,6.31167,16.093,6.43667,16.105,6.55967Zm-2.523.002a1.37144,1.37144,0,0,0,.179.739,0.90614,0.90614,0,0,0,1.578-.012,1.32547,1.32547,0,0,0,.17-0.607,1.43291,1.43291,0,0,0-.157-0.8,0.90952,0.90952,0,0,0-1.615.006,1.35028,1.35028,0,0,0-.155.674h0Z" transform="translate(-1.424 -0.71567)"/>
    <path class="cls-1" d="M14.141,4.30667H13.593v-3.271c0.021-.001.04-0.004,0.06-0.004,0.36,0,.719-0.002,1.079.002a1.44759,1.44759,0,0,1,.663.144,0.86589,0.86589,0,0,1,.463.898,0.81653,0.81653,0,0,1-.571.729,0.079,0.079,0,0,0-.023.014,3.04391,3.04391,0,0,1,.491.79c0.112,0.209.215,0.422,0.322,0.634,0.01,0.02.018,0.04,0.029,0.067-0.205,0-.4.001-0.598-0.002a0.09446,0.09446,0,0,1-.058-0.051c-0.125-.249-0.243-0.5-0.37-0.747-0.059-.114-0.127-0.224-0.197-0.332a0.29707,0.29707,0,0,0-.281-0.143c-0.131.006-.262,0.004-0.393,0-0.055-.001-0.069.017-0.069,0.07,0.002,0.371.001,0.742,0.001,1.113v0.089Zm0.003-1.77c0.114,0,.219.002,0.325,0a3.5393,3.5393,0,0,0,.412-0.017,0.458,0.458,0,0,0,.418-0.477,0.43649,0.43649,0,0,0-.399-0.486,7.36515,7.36515,0,0,0-.743-0.019,0.0305,0.0305,0,0,0-.013.01v0.989Z" transform="translate(-1.424 -0.71567)"/>
    <path class="cls-1" d="M24.583,1.03467h0.55v1.339c0.032,0.002.057,0.004,0.08,0.004,0.482,0,.964-0.001,1.445.001,0.067,0,.082-0.021.082-0.084-0.003-.392-0.002-0.783-0.002-1.174v-0.085h0.551v3.269H26.742v-1.402H25.137v1.402H24.583v-3.27Z" transform="translate(-1.424 -0.71567)"/>
    <path class="cls-1" d="M18.579,4.92867h0.556v2.011a1.82231,1.82231,0,0,1-.073.549,1.01316,1.01316,0,0,1-.784.71,1.92644,1.92644,0,0,1-1.038-.026,1.00792,1.00792,0,0,1-.718-0.84,2.18252,2.18252,0,0,1-.031-0.37c-0.002-.653-0.001-1.308-0.001-1.961,0-.022.002-0.044,0.003-0.07h0.553v0.08c0,0.653-.002,1.307.001,1.961a1.40512,1.40512,0,0,0,.032.303,0.56386,0.56386,0,0,0,.434.438,1.167,1.167,0,0,0,.584.004,0.59276,0.59276,0,0,0,.473-0.579c0.007-.091.01-0.181,0.01-0.271q0.003-.9225.001-1.847v-0.092H18.579Z" transform="translate(-1.424 -0.71567)"/>
    <path class="cls-1" d="M23.871,1.71467c-0.102-.042-0.185-0.079-0.27-0.108a1.67832,1.67832,0,0,0-.898-0.092,0.58153,0.58153,0,0,0-.152.052,0.31785,0.31785,0,0,0-.15.426,0.27918,0.27918,0,0,0,.057.083,0.86721,0.86721,0,0,0,.349.215c0.226,0.088.452,0.169,0.676,0.261a1.043,1.043,0,0,1,.386.27,0.88733,0.88733,0,0,1-.085,1.204,1.19659,1.19659,0,0,1-.661.305,2.12783,2.12783,0,0,1-1.396-.24c-0.011-.006-0.022-0.015-0.038-0.026,0.076-.148.15-0.294,0.225-0.439,0.119,0.053.234,0.112,0.354,0.153a1.40019,1.40019,0,0,0,.879.045,0.42377,0.42377,0,0,0,.309-0.271,0.3525,0.3525,0,0,0-.139-0.414,1.9994,1.9994,0,0,0-.365-0.188c-0.227-.096-0.462-0.17-0.684-0.276a0.76637,0.76637,0,0,1-.452-0.558,0.861,0.861,0,0,1,.653-1.046,2.13573,2.13573,0,0,1,1.355.094,0.08187,0.08187,0,0,1,.047.046C23.873,1.37567,23.871,1.53967,23.871,1.71467Z" transform="translate(-1.424 -0.71567)"/>
    <path class="cls-1" d="M12.716,7.60967l0.163,0.458c-0.139.045-.271,0.096-0.407,0.127a1.95769,1.95769,0,0,1-.953.002,1.31515,1.31515,0,0,1-.946-0.828,1.98744,1.98744,0,0,1,.071-1.699,1.39252,1.39252,0,0,1,1.272-.772,2.09541,2.09541,0,0,1,.861.149c0.025,0.01.05,0.02,0.075,0.031a0.14618,0.14618,0,0,1,.021.016q-0.0795.228-.161,0.455c-0.125-.04-0.245-0.088-0.369-0.115a1.02485,1.02485,0,0,0-.918.171,1.08552,1.08552,0,0,0-.381.662,1.46541,1.46541,0,0,0,.086.896,0.94615,0.94615,0,0,0,1.064.577A4.85441,4.85441,0,0,0,12.716,7.60967Z" transform="translate(-1.424 -0.71567)"/>
    <path class="cls-1" d="M25.207,5.08767q-0.0825.237-.162,0.46c-0.125-.04-0.242-0.087-0.364-0.115a1.03054,1.03054,0,0,0-.925.172,1.12352,1.12352,0,0,0-.393.723,1.44192,1.44192,0,0,0,.102.842,0.94688,0.94688,0,0,0,1.056.57,5.01268,5.01268,0,0,0,.528-0.128c0.048,0.134.103,0.287,0.162,0.457-0.139.044-.271,0.095-0.408,0.127a1.98255,1.98255,0,0,1-.947.003,1.314,1.314,0,0,1-.951-0.832,1.98654,1.98654,0,0,1,.079-1.711,1.39209,1.39209,0,0,1,1.26-.758,2.07933,2.07933,0,0,1,.868.149C25.143,5.05967,25.172,5.07267,25.207,5.08767Z" transform="translate(-1.424 -0.71567)"/>
    <path class="cls-1" d="M18.537,1.54167H17.489v-0.505h2.648v0.502H19.095v2.766H18.536v-2.763h0.001Z" transform="translate(-1.424 -0.71567)"/>
    <path class="cls-1" d="M27.293,7.70267h1.283v0.496H26.744v-3.27h0.549v2.774Z" transform="translate(-1.424 -0.71567)"/>
    <path class="cls-1" d="M26.209,4.92967v3.271H25.662v-3.271h0.547Z" transform="translate(-1.424 -0.71567)"/>
    <path class="cls-1" d="M20.585,4.30467v-3.274h0.401c0.151,0,.151,0,0.151.148v3.126H20.585Z" transform="translate(-1.424 -0.71567)"/>
    <path class="cls-1" d="M16.497,1.03467h0.545v3.27H16.497v-3.27Z" transform="translate(-1.424 -0.71567)"/>
    <circle class="cls-1" cx="5.903" cy="1.885" r="1.885"/>
    <circle class="cls-1" cx="1.885" cy="1.885" r="1.885"/>
    <circle class="cls-1" cx="5.903" cy="5.892" r="1.885"/>
    <circle class="cls-1" cx="1.885" cy="5.892" r="1.885"/>
  </g>
</svg>
